<svg xmlns="http://www.w3.org/2000/svg" viewBox="0 0 100 100">
    <path d="M25.32 94.056h50.384c5.834 0 10.607-4.773 10.607-10.607V14.503c0-5.834-4.773-10.607-10.607-10.607H25.32c-5.834 0-10.607 4.773-10.607 10.607v68.946c0 5.834 4.773 10.607 10.607 10.607zm-5.303-79.553c0-2.917 2.386-5.304 5.303-5.304h50.384c2.917 0 5.303 2.387 5.303 5.304v68.946c0 2.917-2.386 5.303-5.303 5.303H25.32c-2.917 0-5.303-2.386-5.303-5.303z"/>
    <path d="M75.704 17.155H25.32v21.214h50.384zM70.4 33.065H30.624V22.458H70.4zM35.927 43.672H25.32V54.28h10.607zm-2.651 7.956h-5.304v-5.304h5.304zm5.303 2.651h10.607V43.672H38.58zm2.652-7.955h5.303v5.304h-5.303zm10.607 7.955h10.607V43.672H51.838zm2.652-7.955h5.303v5.304H54.49zm10.607 7.955h10.607V43.672H65.097zm2.652-7.955h5.303v5.304H67.75zM35.927 56.931H25.32v10.607h10.607zm-2.651 7.955h-5.304v-5.303h5.304zm5.303 2.652h10.607V56.931H38.58zm2.652-7.955h5.303v5.303h-5.303zm10.607 7.955h10.607V56.931H51.838zm2.652-7.955h5.303v5.303H54.49zm10.607 7.955h10.607V56.931H65.097zm2.652-7.955h5.303v5.303H67.75zM35.927 70.19H25.32v10.607h10.607zm-2.651 7.955h-5.304v-5.303h5.304zm5.303 2.652h10.607V70.19H38.58zm2.652-7.955h5.303v5.303h-5.303zm10.607 7.955h10.607V70.19H51.838zm2.652-7.955h5.303v5.303H54.49zm10.607 7.955h10.607V70.19H65.097zm2.652-7.955h5.303v5.303H67.75z"/>
</svg>