<svg xmlns="http://www.w3.org/2000/svg" viewBox="0 0 438.533 438.533">
    <path d="M284.837 167.456c-7.193-12.324-16.95-22.081-29.274-29.274-12.326-7.192-25.782-10.788-40.377-10.788-14.594 0-28.053 3.596-40.377 10.788-12.325 7.192-22.082 16.95-29.275 29.274-7.194 12.325-10.79 25.784-10.79 40.377 0 14.594 3.597 28.05 10.789 40.377 7.193 12.323 16.95 22.08 29.274 29.274 12.326 7.192 25.784 10.788 40.378 10.788 14.593 0 28.053-3.596 40.377-10.788 12.324-7.191 22.081-16.95 29.274-29.274 7.191-12.325 10.786-25.784 10.786-40.377 0-14.594-3.595-28.054-10.785-40.377z"/>
</svg>