<svg xmlns="http://www.w3.org/2000/svg" version="1.2" baseProfile="tiny"
     viewBox="0 0 100 100">
    <path d="M92.5 40h-8.959a34.714 34.714 0 00-2.751-6.646l6.334-6.335a2.5 2.5 0 000-3.535L76.516 12.877a2.498 2.498 0 00-3.535 0l-6.334 6.334A34.738 34.738 0 0060 16.46V7.5A2.5 2.5 0 0057.5 5h-15A2.5 2.5 0 0040 7.5v8.96a34.738 34.738 0 00-6.647 2.751l-6.334-6.334a2.498 2.498 0 00-3.535 0L12.877 23.483a2.498 2.498 0 000 3.535l6.334 6.335a34.676 34.676 0 00-2.751 6.646H7.5A2.501 2.501 0 005 42.5v15A2.5 2.5 0 007.5 60h8.959a34.714 34.714 0 002.751 6.646l-6.334 6.335a2.5 2.5 0 000 3.535l10.607 10.606c.976.977 2.56.977 3.535 0l6.334-6.334a34.738 34.738 0 006.647 2.751v8.96a2.5 2.5 0 002.5 2.5h15a2.5 2.5 0 002.5-2.5v-8.96a34.738 34.738 0 006.647-2.751l6.334 6.334c.976.977 2.56.977 3.535 0l10.607-10.606a2.498 2.498 0 000-3.535l-6.334-6.335A34.676 34.676 0 0083.539 60H92.5a2.5 2.5 0 002.5-2.5v-15a2.5 2.5 0 00-2.5-2.5zM25.251 81.82l-7.071-7.071 5.924-5.925.003-.003 11.189-11.188a2.496 2.496 0 00.587-2.606A14.962 14.962 0 0135 50c0-8.271 6.729-15 15-15 1.719 0 3.423.301 5.038.883l-6.322 3.649a2.5 2.5 0 00-1.25 2.176l.037 8.3a2.498 2.498 0 001.24 2.148l7.169 4.182a2.497 2.497 0 002.51.006l6.337-3.659C63.49 59.68 57.355 65 50 65c-1.688 0-3.379-.297-5.026-.884a2.493 2.493 0 00-2.606.588L25.251 81.82zM90 55h-8.379a2.5 2.5 0 00-2.433 1.925 29.734 29.734 0 01-3.65 8.817 2.5 2.5 0 00.358 3.082l5.924 5.925-7.071 7.071-5.924-5.924a2.5 2.5 0 00-3.082-.359 29.768 29.768 0 01-8.818 3.65A2.5 2.5 0 0055 81.62V90H45v-8.38a2.5 2.5 0 00-1.925-2.433 29.826 29.826 0 01-5.989-2.131l7.749-7.749A19.7 19.7 0 0050 70c11.028 0 20-8.972 20-20 0-.129-.007-.257-.016-.384l-.005-.106a3.308 3.308 0 00-1.728-2.771 3.294 3.294 0 00-3.255.036l-7.817 4.513-4.682-2.73-.024-5.421 7.816-4.513c1-.576 1.62-1.61 1.657-2.764a3.313 3.313 0 00-1.481-2.881c-.029-.02-.058-.038-.088-.057A19.972 19.972 0 0050 30c-11.028 0-20 8.972-20 20 0 1.736.232 3.468.692 5.166l-7.749 7.748a29.804 29.804 0 01-2.131-5.989A2.499 2.499 0 0018.379 55H10V45h8.379a2.5 2.5 0 002.433-1.925 29.734 29.734 0 013.65-8.817 2.5 2.5 0 00-.358-3.082l-5.924-5.925 7.071-7.071 5.924 5.924c.819.819 2.094.97 3.082.359a29.768 29.768 0 018.818-3.65A2.5 2.5 0 0045 18.38V10h10v8.38a2.5 2.5 0 001.925 2.433 29.794 29.794 0 018.818 3.65 2.5 2.5 0 003.082-.359l5.924-5.924 7.071 7.071-5.924 5.925a2.5 2.5 0 00-.358 3.082 29.745 29.745 0 013.65 8.817A2.499 2.499 0 0081.621 45H90v10z"/>
</svg>