<svg xmlns="http://www.w3.org/2000/svg" viewBox="0 0 412.76 412.76">
    <path d="M376.493 310.998c-1.577-29.167-24.972-52.562-54.139-54.139v-21.72h-6.235v21.72c-29.167 1.577-52.562 24.972-54.139 54.139h-21.465v6.235h21.465c1.577 29.167 24.972 52.568 54.139 54.145v21.715h6.235v-21.715c29.167-1.576 52.562-24.978 54.139-54.145h26.141v-6.235h-26.141zm-60.374 54.145c-25.733-1.56-46.345-22.178-47.903-47.91h47.903v47.91zm0-54.145h-47.903c1.559-25.732 22.17-46.345 47.903-47.903v47.903zm6.235 54.145v-47.91h47.903c-1.565 25.732-22.17 46.35-47.903 47.91zm0-54.145v-47.903c25.732 1.559 46.344 22.171 47.903 47.903h-47.903zM291.336 90.016c-.755-4.676 2.43-9.091 7.106-9.852 2.064-.338 50.595-8.716 53.512-50.531.322-4.677 4.365-8.257 9.151-7.974 4.737.335 8.312 4.445 7.989 9.17-3.879 55.512-67.291 66.201-67.931 66.302a9.071 9.071 0 01-1.358.104 8.548 8.548 0 01-8.469-7.219zM32.383 30.83c-.329-4.725 3.249-8.835 7.971-9.164 4.874-.344 8.841 3.291 9.17 7.968 2.92 41.82 51.441 50.199 53.512 50.537 4.67.761 7.858 5.176 7.109 9.846a8.559 8.559 0 01-8.473 7.225c-.457 0-.916-.037-1.379-.11-.625-.101-64.038-10.791-67.91-66.302zm298.179 131.702c2.448.101 60.922 3.069 72.655 50.017a8.556 8.556 0 01-.962 6.503 8.513 8.513 0 01-5.291 3.91 8.005 8.005 0 01-2.083.268 8.587 8.587 0 01-8.33-6.504c-8.592-34.382-56.27-37.01-56.75-37.027a8.524 8.524 0 01-5.956-2.768 8.542 8.542 0 01-2.259-6.181c.195-4.612 3.939-8.229 8.531-8.229l.445.011zM73.686 179.698c-.472.024-48.193 2.761-56.76 37.027a8.58 8.58 0 01-8.33 6.504c-.703 0-1.41-.086-2.088-.268a8.535 8.535 0 01-5.282-3.91 8.544 8.544 0 01-.965-6.503c11.734-46.947 70.208-49.916 72.692-50.022l.359-.006a8.57 8.57 0 018.58 8.217c.206 4.734-3.472 8.75-8.206 8.961zm87.239-130.592a40.431 40.431 0 01-.332-5.133c0-22.289 18.14-40.429 40.429-40.429 22.293 0 40.426 18.14 40.426 40.429 0 1.705-.115 3.419-.335 5.133 24.266 10.692 45.236 31.113 59.291 57.771l1.607 3.054-3.069 1.589c-26.348 13.707-55.752 20.658-87.392 20.658-46.841 0-86.804-15.013-106.457-23.967l-3.398-1.553 1.827-3.261c13.972-24.904 34.282-44.091 57.403-54.291zm-44.92 249.129c1.148 4.592-1.653 9.262-6.241 10.412-.441.122-46.098 12.398-52.008 53.037-.612 4.189-4.265 7.355-8.494 7.355-.411 0-.828-.024-1.245-.098-4.683-.676-7.946-5.048-7.265-9.736 7.618-52.349 62.502-66.646 64.834-67.23a8.593 8.593 0 0110.419 6.26zm203.231-76.09c-1.419 0-2.801.152-4.201.219a173.843 173.843 0 004.11-37.503c0-22.94-4.287-44.88-12.732-65.215l-1.438-3.449-3.318 1.717c-21.896 11.317-57.305 17.881-83.147 20.247l-2.405.216-.603 2.338c-7.021 27.088-11.162 60.313-13.594 91.155-3.851-49.042-9.508-90.613-9.603-91.249l-.429-2.947c-45.039-4.82-83.361-20.372-90.08-23.435l-3.157-1.44-1.416 3.169c-9.372 21.029-14.322 44.85-14.322 68.893 0 79.579 52.988 144.319 118.12 144.319 8.675 0 17.11-1.23 25.246-3.41 5.054 46.838 44.804 83.445 92.963 83.445 51.569 0 93.529-41.96 93.529-93.529.001-51.574-41.947-93.541-93.523-93.541zm0 180.823c-48.135 0-87.294-39.153-87.294-87.294 0-48.129 39.159-87.294 87.294-87.294s87.294 39.165 87.294 87.294c0 48.141-39.165 87.294-87.294 87.294z"/>
</svg>