<svg xmlns="http://www.w3.org/2000/svg" viewBox="0 0 95.926 95.926">
    <path d="M47.893 47.221c11.768 0 21.341-10.592 21.341-23.611S59.66 0 47.893 0C36.125 0 26.55 10.592 26.55 23.61c0 13.02 9.575 23.611 21.343 23.611z"/>
    <path d="M72.477 44.123a3.003 3.003 0 0 0-3.192 1.355C61.65 57.847 49.34 58.204 47.962 58.204s-13.687-.357-21.32-12.722a3.001 3.001 0 0 0-3.198-1.354C6.868 47.777 2.497 72.798 3.789 93.115a3.001 3.001 0 0 0 2.994 2.811h82.36a2.998 2.998 0 0 0 2.993-2.811c1.293-20.34-3.079-45.375-19.659-48.992z"/>
</svg>